<svg class="icon-banyan-city" viewBox="0 0 200 403" xmlns="http://www.w3.org/2000/svg" fill-rule="evenodd" clip-rule="evenodd" stroke-linejoin="round" stroke-miterlimit="2">
  <g fill="#30281f" fill-rule="nonzero">
    <path d="M100.822 309.499c-.169.543.583 3.365 1.273 3.483 3.363.572 17.49-20.522 16.027-24.353.084.215-13.492 9.49-14.329 10.247-3.745 3.395-4.426 4.923-2.971 10.623m98.221 54.79c1.11 5.462-1.028 11.466-.176 16.805 1.033 6.459 3.651 14.156-5.75 13.388-11.416-.935-22.421-18.146-28.967-26.513-4.709-6.016-7.604-11.661-11.731-17.959-4.474-6.826-6.276-2.21-10.426 4.476-2.298 3.7-8.91 16.259-13.806 16.699-3.679.331 5.582-14.998 6.603-16.803 3.558-6.297 9.808-14.217 8.815-21.817-.478-3.66-4.754-9.289-7.162-11.936-5.088-5.59-2.739-5.546-4.434-12.458-.485-1.981-1.465-4.653-2.61-6.316-3.63-5.275-3.159-4.167-6.57-.941-1.542 1.459-4.223 5.193-3.572 7.149.258.773 4.221 2.415 5.021 3.744 1.394 2.309.24 5.084.192 7.519-.205 10.627-2.16 30.252-11.243 37.924-5.649 4.771-11.627 1.653-12.405-5.159-.831-7.271 3.152-4.832 7.434-8.548 2.544-2.206 4.07-9.038 4.981-11.891.335-1.048 2.27-7.516 1.443-8.406-3.86-4.157-3.962 3.051-7.294 4.105-7.617 2.409-4.727-8.479-5.745-10.69-1.347-2.926-1.036 10.366-1.023 10.057-.115 2.731-1.363 7.593-1.774 9.775-1.426 7.586-6.197 16.613-11.564 22.789-2.764 3.18-8.271 8.885-12.944 5.077-.835-.681-1.243-2.631-1.61-3.604-2.443-6.468.985-6.489 3.881-9.501 7.775-8.089 10.25-17.487 11.494-28.596.598-5.346 1.234-12.003.401-17.365-.512-3.296-3.294-6.815-3.189-10.421.164-5.646 2.206-7.7 7.148-6.403 2.524.662 2.126 3.38 5.24 3.19 1.415-.086 4.494-2.79 5.667-3.716 3.94-3.113 8.695-6.594 12.203-9.987 4.418-4.272 3.133-5.668 1.976-11.258-1.746-8.427-4.913-16.735-6.61-24.391-1.251-5.65-2.261-11.205-3.254-17.103-1.247-7.403-3.086-23.906 6.291-13.318 6.875 7.764 10.762 14.778 11.204 24.937.213 4.927 1.055 9.515 1.774 14.196.859 5.602-.355 13.806 6.101 13.422 5.092-.303 10.514-10.451 14.622-3.983 2.485 3.912-2.091 11.158-4.619 13.946-3.157 3.481-7.184 4.292-7.409 9.991-.146 3.72 3.248 9.656 4.641 13.154 1.612 4.051 3.144 8.6 5.189 12.305.638 1.156 1.545 3.136 2.655 4.042 4.429 3.609 1.306 2.577 3.575-.589 2.593-3.615 4.237-13.06 5.144-17.89.811-4.318-.053-8.547 5.018-4.495 7.656 6.116 4.78 17.54 2.342 24.791-1.393 4.143-4.839 9.067-5.238 13.305-.425 4.516 2.788 11.152 4.946 14.957 4.485 7.909 12.678 18.805 20.222 24.425 3.591 2.674 3.962 3.079 6.072.216 1.655-2.241.453-6.077 2.453-7.843 2.423-2.137 7.091-.374 6.377 3.516M56.264 148.14c1.126-1.952.78-10.939 1.124-13.385.625-4.434.499-8.836.874-13.395.475-5.765 2.136-8.928-3.595-4.783-3.426 2.478-6.217 7.632-8.123 11.234-2.707 5.113-5.325 13.81-11.302 16.451-11.032 4.873-9.88-10.727-8.332-16.433 3.564-13.153 15.67-22.595 22.773-34.068 4.943-7.984.284-5.306-5.7-8.064-5.268-2.429-14.948-10.068-11.086-15.518 3.005-4.24 14.024-6.698 18.505-9.854 12.895-9.08 9.338-18.695 8.682-33.216-.253-5.636 2.038-30.804 9.71-24.597 3.086 2.496 4.07 10.816 5.426 14.319 1.817 4.695 3.014 8.62 2.325 13.929-.238 1.839-1.909 6.826-1.122 8.663.413.964 5.736 4.066 6.446 4.955 5.749 7.186 1.741 13.11-4.114 18.714-2.034 1.947-5.061 4.16-6.064 6.894-.576 1.567-1.558 13.096-.471 13.928 2.383 1.825 4.572-2.853 6.885-.221 1.272 1.448-5.238 9.807-6.219 11.643-4.489 8.398-3.139 17.263-3.079 26.524.064 9.668 1.897 21.058.194 30.555-.384 2.149-3.577 10.078-5.932 10.374-3.789.475-7.82-11.948-7.805-14.649m74.595-23.3c-3.771-.873-13.557 4.387-14.11 7.47-.793 4.416 2.891 10.308 6.478 10.782 4.626.613 12.405-4.355 15.244-7.65 2.158-2.504 6.596-9.783 2.932-12.333-2.008-1.399-8.139 1.743-10.544 1.731m-5.996-28.086c-1.212.022-17.646 21.52-16.7 23.988.592 1.543 26.301-4.39 29.607-4.937 4.555-.754 9.003-2.293 6.459-6.852-1.838-3.291-15.591-12.46-19.366-12.199m-2.278 59.078c0 5.762-.402 14.492-6.145 7.305-3.015-3.774-5.985-11.565-7.239-16.375-1.249-4.796-1.621-19.231-8.732-16.929-5.15 1.667-10.143 12.365-13.609 15.903-8.39 8.568-14.77 6.032-6.15-3.923 6.964-8.044 12.383-16.548 18.128-25.184 5.744-8.633 11.318-17.612 16.4-26.759 1.341-2.413 7.044-14.199 9.63-13.985 4.167.342 1.801 13.438 5.32 15.857.58.398 8.432 2.286 9.34 2.6 2.483.857 5.052 1.321 7.49 2.306 5.987 2.419 8.806 5.821 15.121 6.568 5.427.642 35.203 6.512 21.438 15.068-4.948 3.074-12.657 4.148-18.201 3.95-3.695-.131-4.642-.93-6.959 1.274.057-.054-.551 5.367-.627 5.54-.665 1.511-2.97 2.059-3.72 3.689-3.812 8.285.527 14.654-9.998 17.721-5.123 1.492-19.766-.86-21.487 5.374"/>
    <path d="M82.954 289.251c.671 3.82-5.091 8.88-7.436 11.587-2.733 3.156-7.445 10.436-3.229 14.882 1.197 1.261 6.221-.962 8.116.896 2.017 1.981 1.656 6.538.664 8.994-2.223 5.5-8.493 7.644-13.066 10.608-3.649 2.366-7.198 5.032-10.775 7.498-2.968 2.047-5.916 5.597-9.403 7.077-1.074.457-9.183 2.287-10.853 2.172-7.839-.54-10.196-6.729-4.002-11.471 5.976-4.575 14.917-6.679 19.756-12.686 1.652-2.051 4.616-7.505 1.36-10.396-1.397-1.24-9.163-.414-11.695-.772-8.768-1.242-10.62-4.909-3.36-10.857 6.54-5.357 15.766-9.652 14.788-19.179-.66-6.43-11.91-42.193 5.87-26.629 2.953 2.584 6.331 6.033 8.417 9.366.505.806 1.927 7.892 2.396 8.412 2.148 2.381 3.86 1.464 7.158 3.375 1.521.882 6.417 5.094 5.294 7.123m13.64-250.544c5.792-.863 20.86-5.381 23.224-11.785 2.27-6.146-14.231-25.078-2.492-26.815 10.496-1.554 12.485 14.409 20.051 16.936 2.742.915 12.58-1.142 14.218-1.813 6.548-2.682 11.722 10.416 9.361 14.547-2.219 3.884-6.468 4.336-10.283 2.898-3.599-1.356-3.217.515-3.511-4.041-.34-5.264 4.747-7.713-3.236-6.486-4.152.638-6.707 2.763-9.927 4.762-6.396 3.972-11.561 9.04-18.139 12.673-3.336 1.844-6.995 3.405-10.171 5.041-5.525 2.846-4.189.97-3.942 8.37.175 5.284-.045 24.85-8.597 25.686-10.196.995-4.144-39.973 3.444-39.973"/>
    <path d="M133.353 71.211c-6.375-.211-2.687-4.508-1.434-7.512 1.418-3.402 1.586-5.947 1.589-9.696.003-5.257-.131-18.225 6.421-10.985 1.772 1.959 1.98 5.1 3.629 7.336 1.545 2.095 4.138 3.085 5.172 5.583 3.944 9.526-7.495 14.646-15.377 15.274m30.31 165.632c.807 5.324-4.203 14.208-10.401 12.023-4.592-1.621-6.483-9.325-7.261-13.475-1.174-6.263-1.955-10.63 5.183-8.736 2.934.778 13.785 6.022 12.479 10.188M115.854 56.144c.365 3.273 3.145 4.868 2.523 9.195-.413 2.877-2.002 6.818-3.418 9.322-1.312 2.32-10.443 15.375-12.68 10.141-1.222-2.857 4.906-11.595 6.118-14.606 1.047-2.604 2.012-5.129 2.917-7.783.49-1.437.082-3.802 1.263-4.95.651-.633 2.932-.801 3.277-1.319"/>
  </g>
</svg>
